<?xml version="1.0" standalone="no"?>
<!DOCTYPE svg PUBLIC "-//W3C//DTD SVG 1.1//EN" "http://www.w3.org/Graphics/SVG/1.1/DTD/svg11.dtd" >
<svg xmlns="http://www.w3.org/2000/svg">
<metadata></metadata>
<defs>
<font id="ramblabold" horiz-adv-x="1046" >
<font-face units-per-em="2048" ascent="1638" descent="-410" />
<missing-glyph horiz-adv-x="380" />
<glyph horiz-adv-x="2048" />
<glyph horiz-adv-x="2048" />
<glyph unicode="&#xd;" horiz-adv-x="681" />
<glyph unicode=" "  horiz-adv-x="380" />
<glyph unicode="&#x09;" horiz-adv-x="380" />
<glyph unicode="&#xa0;" horiz-adv-x="380" />
<glyph unicode="!" horiz-adv-x="507" d="M88 155.5q0 69.5 49 119t119 49.5t119 -49.5t49 -118t-49 -119.5t-119 -51t-119 50t-49 119.5zM104 1438h299l-45 -996h-215z" />
<glyph unicode="&#x22;" horiz-adv-x="796" d="M82 1434h258l-37 -514h-184zM457 1434h258l-37 -514h-184z" />
<glyph unicode="#" horiz-adv-x="1314" d="M78 352v215h207l34 195h-229v213h266l72 393h225l-69 -393h215l71 393h226l-70 -393h205v-213h-242l-35 -195h277v-215h-316l-65 -379h-227l65 379h-215l-65 -379h-228l66 379h-168zM512 567h215l35 195h-215z" />
<glyph unicode="$" horiz-adv-x="1009" d="M53 68l76 243q188 -86 356 -86q190 0 191 148q0 72 -63.5 123t-172 101t-154.5 76.5t-102 76.5q-104 92 -104 256.5t95 261t251 118.5l-8 224h186l-8 -219q131 -10 309 -74l-82 -223q-168 59 -286 59q-170 0 -172 -135q0 -55 36.5 -83t53 -39t66.5 -36.5t93 -49.5 t79 -45.5t95.5 -66.5t92.5 -84q80 -102 80 -246.5t-96.5 -252t-266.5 -133.5l8 -209h-186l6 204q-221 18 -373 91z" />
<glyph unicode="%" horiz-adv-x="1783" d="M90 1044q0 229 107 316q90 74 221 74t211 -83t80 -304q0 -227 -107 -314q-88 -72 -220 -71.5t-212 81t-80 301.5zM283 1043.5q0 -144.5 29.5 -195.5t87 -51t87 52t29.5 195.5t-29.5 197.5t-87 54t-87 -54t-29.5 -198.5zM369 0l723 1415h264l-721 -1415h-266zM1030 362 q0 229 107 318q90 72 221 72t211 -83t80 -304q0 -227 -105 -314q-90 -72 -222 -71.5t-212 81t-80 301.5zM1223 361.5q0 -144.5 29.5 -195.5t87 -51t87 52t29.5 195.5t-29.5 197.5t-87 54t-87 -54t-29.5 -198.5z" />
<glyph unicode="&#x26;" horiz-adv-x="1386" d="M72 389q0 260 293 410q-137 176 -137.5 310t100 212t256 78t362.5 -76l-67 -199q-158 68 -274 68t-116 -107q0 -76 99 -192l350 -422q88 172 104 401h222q-12 -338 -183 -563q109 -94 297 -186l-108 -191q-76 33 -179.5 91.5t-168.5 109.5q-152 -160 -369 -160 t-349 106.5t-132 309.5zM332 394q0 -79 56 -139t178 -60t218 90l-299 358q-71 -35 -112 -102.5t-41 -146.5z" />
<glyph unicode="'" horiz-adv-x="421" d="M82 1434h258l-37 -514h-184z" />
<glyph unicode="(" horiz-adv-x="618" d="M63 634q0 441 340 906l179 -123q-246 -420 -246 -786.5t246 -780.5l-179 -122q-340 465 -340 906z" />
<glyph unicode=")" horiz-adv-x="618" d="M37 -150q246 414 246 780.5t-246 786.5l178 123q340 -465 340 -906t-340 -906z" />
<glyph unicode="*" horiz-adv-x="804" d="M70 1006l200 71l-198 74l96 178l156 -143l-21 219h193l-19 -217l154 139l102 -176l-201 -72l201 -78l-104 -167l-152 135l21 -215h-195l21 221l-154 -141z" />
<glyph unicode="+" horiz-adv-x="989" d="M76 457v225h305v297h227v-297h305v-225h-305v-299h-227v299h-305z" />
<glyph unicode="," horiz-adv-x="446" d="M-41 -262q168 195 168 352q0 68 -35 148h236q24 -54 24 -117q0 -215 -182 -383h-211z" />
<glyph unicode="-" horiz-adv-x="1042" d="M104 457v223h834v-223h-834z" />
<glyph unicode="." horiz-adv-x="495" d="M80 155.5q0 69.5 49 119t118.5 49.5t119 -49.5t49.5 -118t-49.5 -119.5t-119 -51t-118.5 50t-49 119.5z" />
<glyph unicode="/" horiz-adv-x="872" d="M37 -182l584 1743l215 -64l-580 -1739z" />
<glyph unicode="0" horiz-adv-x="1118" d="M88 680q0 518 215 651q100 63 260 64q240 0 353.5 -156t113.5 -553q0 -406 -125 -563q-63 -80 -148 -115t-224.5 -35t-237.5 60q-207 127 -207 647zM367 683q0 -265 44 -366.5t148.5 -101.5t148.5 101.5t44 366.5t-44 366.5t-148.5 101.5t-148.5 -101.5t-44 -366.5z" />
<glyph unicode="1" horiz-adv-x="772" d="M14 1192l406 176h221v-1366h-285v1096l-252 -109z" />
<glyph unicode="2" horiz-adv-x="987" d="M55 0v215q221 242 363.5 413t174.5 227t32 136t-47.5 125t-155 45t-250.5 -61l-63 205q186 92 369.5 92t292 -106.5t108.5 -282.5q0 -109 -45.5 -200t-140.5 -218t-298 -352h529l-19 -238h-850z" />
<glyph unicode="3" horiz-adv-x="1001" d="M55 51l62 228q184 -66 301 -66q233 0 233 211q0 94 -63.5 149.5t-186.5 55.5h-141v207h121q205 -1 205 165q0 72 -50.5 107t-149.5 35t-251 -62l-65 219q201 92 389 92.5t294.5 -97t106.5 -261.5q0 -82 -38 -159.5t-115 -126.5q219 -94 219 -312.5t-130 -340.5t-356 -122 q-166 0 -385 78z" />
<glyph unicode="4" horiz-adv-x="1163" d="M39 360v152l545 858h319v-815h213v-195h-213v-360h-272v360h-592zM340 555h291l-2 479z" />
<glyph unicode="5" horiz-adv-x="989" d="M57 98l88 203q173 -86 306 -86q88 0 143 58.5t55 176t-51 172t-141 54.5t-174 -84l-150 72v706h715v-235h-475v-261q66 47 168 48q166 0 274.5 -120t108.5 -333t-119 -354.5t-331 -141.5t-417 125z" />
<glyph unicode="6" horiz-adv-x="1021" d="M84 580q0 391 153.5 602t405.5 211q129 0 256 -58l-63 -219q-72 27 -173.5 27t-173 -72t-98.5 -225q41 37 97.5 55.5t95.5 18.5q172 0 272 -111t100 -329t-112.5 -361.5t-325.5 -143.5q-434 0 -434 605zM369 637q0 -240 38.5 -332t115.5 -92t118 68.5t41 183.5t-40 166 t-116.5 52t-156.5 -46z" />
<glyph unicode="7" horiz-adv-x="886" d="M45 1135v235h817v-147l-221 -531q-152 -332 -205 -692h-268q43 346 197 696q4 8 196 439h-516z" />
<glyph unicode="8" horiz-adv-x="1060" d="M76 383q0 100 60.5 194.5t164.5 155.5q-164 100 -164 286.5t111.5 281t291 94.5t286 -90.5t106.5 -249.5q0 -207 -191 -320q242 -117 242 -346q0 -172 -113.5 -293t-336 -121t-340 109t-117.5 299zM342 389q0 -84 53.5 -130t137 -46t134 52t50.5 136t-57.5 133.5 t-161.5 90.5q-2 0 -8.5 3t-8.5 3l-2 2q-137 -84 -137 -244zM391 1035.5q0 -66.5 44 -124t110 -88.5q59 35 96 98.5t37 120t-40 88t-100.5 31.5t-103.5 -29.5t-43 -96z" />
<glyph unicode="9" horiz-adv-x="1024" d="M68 886q0 218 112.5 361.5t325.5 143.5q434 0 434 -605q0 -391 -153.5 -601t-405.5 -210q-129 0 -256 58l63 219q72 -27 173.5 -27t173 72t98.5 223q-41 -37 -97.5 -55.5t-95.5 -18.5q-172 0 -272 111t-100 329zM342 901q0 -115 40 -166t116.5 -52t156.5 46 q0 240 -38.5 332t-115.5 92t-118 -68.5t-41 -183.5z" />
<glyph unicode=":" horiz-adv-x="544" d="M102 155.5q0 69.5 49.5 119t119 49.5t118.5 -49.5t49 -118t-49 -119.5t-118.5 -51t-119 50t-49.5 119.5zM106 764q0 70 49.5 119t119 49t118.5 -49t49 -118t-49 -120t-118.5 -51t-119 50t-49.5 120z" />
<glyph unicode=";" horiz-adv-x="524" d="M4 -262q168 195 168 352q0 68 -35 148h236q24 -54 24 -117q0 -215 -182 -383h-211zM90 757.5q0 69.5 49 119t119 49.5t119 -49.5t49 -118t-49 -119.5t-119 -51t-119 50t-49 119.5z" />
<glyph unicode="&#x3c;" horiz-adv-x="899" d="M63 483v181l730 364v-250l-426 -203l426 -206v-246z" />
<glyph unicode="=" horiz-adv-x="999" d="M113 262v221h774v-221h-774zM113 664v219h774v-219h-774z" />
<glyph unicode="&#x3e;" horiz-adv-x="899" d="M106 123v246l426 206l-426 203v250l730 -364v-181z" />
<glyph unicode="?" horiz-adv-x="749" d="M86 103.5q0 66.5 47 112.5t112.5 46t113 -47t47.5 -112.5t-46.5 -113.5t-113 -48t-113.5 48t-47 114.5zM102 1245l52 189q256 -12 402 -118t146 -255q0 -84 -32.5 -144.5t-60 -88t-78 -71.5t-79 -74t-57.5 -83.5t-35 -112.5l-4 -110h-233q-6 74 -6 137q8 68 42 133.5 t64.5 101t77.5 79.5t68 65q70 70 69 151q0 170 -336 201z" />
<glyph unicode="@" horiz-adv-x="1640" d="M74 573q0 369 220 594.5t603 225.5q340 0 515 -175.5t175 -484.5q0 -526 -387 -526q-59 0 -117.5 33.5t-83.5 85.5q-37 -49 -99 -85t-124 -36q-141 0 -227 90t-86 250q0 217 125 352t313 135q123 0 287 -71l-37 -426q-2 -25 -2 -65t19.5 -56.5t68.5 -16.5q129 0 129 338 q0 215 -119 336t-354 121q-279 0 -434.5 -164t-155.5 -450q0 -354 240 -486q125 -68 296 -67.5t418 86.5l52 -177q-252 -110 -502 -110q-317 0 -520 172q-100 88 -156.5 235.5t-56.5 341.5zM688 559q0 -166 107 -166q53 0 90 47t41 119l22 285q-14 6 -45 6q-92 0 -153.5 -83 t-61.5 -208z" />
<glyph unicode="A" horiz-adv-x="1163" d="M-8 0l434 1368h313l428 -1368h-290l-97 324h-395l-94 -324h-299zM449 547h268l-135 538z" />
<glyph unicode="B" horiz-adv-x="1124" d="M131 0v1368h299q158 0 248 -13.5t162 -60.5q139 -90 139 -276.5t-133 -267.5q119 -53 165 -130t46 -202q0 -195 -118 -306.5t-357 -111.5h-451zM424 233h123q225 0 225 193q0 113 -64.5 155t-185.5 42h-98v-390zM424 838h137q133 10 133 166q0 115 -90 137 q-41 10 -137 10h-43v-313z" />
<glyph unicode="C" horiz-adv-x="1062" d="M80 688q0 195 53 337t146 220q172 145 415 146q154 0 310 -45l-48 -211q-112 22 -209 22h-8q-166 0 -262 -103.5t-96 -362.5t98.5 -366.5t272.5 -107.5q121 0 219 16l18 -223q-162 -37 -300 -37t-239.5 36t-187.5 116q-182 170 -182 563z" />
<glyph unicode="D" horiz-adv-x="1230" d="M131 0v1366h385q258 0 361 -53q270 -139 270 -631q0 -221 -64.5 -389t-203.5 -238q-111 -55 -363 -55h-385zM426 264h102q195 0 261.5 101.5t66.5 318.5t-65.5 317.5t-262.5 100.5h-102v-838z" />
<glyph unicode="E" horiz-adv-x="1097" d="M131 0v1370h862v-237h-567v-310h535v-229h-535v-356h586v-238h-881z" />
<glyph unicode="F" horiz-adv-x="1048" d="M131 0v1368h862v-235h-565v-310h516v-229h-516v-594h-297z" />
<glyph unicode="G" horiz-adv-x="1187" d="M78 688q0 195 53 337t144.5 219t194.5 112t244.5 35t336.5 -54l-43 -213q-137 33 -287 33t-246 -103.5t-96 -359.5q0 -477 317 -477q63 0 133 12v254h-192v215h461v-635q-225 -90 -458.5 -90t-393.5 171t-168 544z" />
<glyph unicode="H" horiz-adv-x="1296" d="M131 0v1368h293v-541h448v541h293v-1368h-293v590h-448v-590h-293z" />
<glyph unicode="I" horiz-adv-x="557" d="M131 0v1368h295v-1368h-295z" />
<glyph unicode="J" horiz-adv-x="552" d="M-119 -186q154 86 203 178t49 256v1120h293v-1116q0 -223 -93 -375.5t-325 -257.5z" />
<glyph unicode="K" horiz-adv-x="1302" d="M131 0v1368h295v-1368h-295zM471 698l397 670h349l-424 -659l514 -709h-359z" />
<glyph unicode="L" horiz-adv-x="970" d="M131 0v1368h297v-1130h522v-238h-819z" />
<glyph unicode="M" horiz-adv-x="1579" d="M94 0l80 1368h320l294 -881l297 881h320l80 -1368h-275l-32 979l-281 -805h-215l-283 807l-32 -981h-273z" />
<glyph unicode="N" horiz-adv-x="1396" d="M131 0v1368h311l537 -958v958h287v-1368h-312l-538 956v-956h-285z" />
<glyph unicode="O" horiz-adv-x="1265" d="M80 684q0 289 119 487q61 105 172.5 163.5t249 58.5t234.5 -40t158.5 -105.5t100.5 -157.5q72 -172 72 -406q0 -291 -117 -487q-61 -102 -174 -162t-251 -60t-234.5 40t-158 105.5t-99.5 158.5q-72 172 -72 405zM365 679q0 -210 59 -332t208.5 -122t209 122t59.5 300 t-20.5 275.5t-82 164t-152.5 66.5t-145.5 -36t-82.5 -103q-53 -125 -53 -335z" />
<glyph unicode="P" horiz-adv-x="1105" d="M131 0v1368h395q156 0 249 -26.5t165 -92.5q125 -111 125 -320.5t-139 -322.5q-72 -57 -174.5 -81.5t-274.5 -24.5h-51v-500h-295zM426 717h23q203 0 260 43q70 47 70 173q1 129 -71 174q-70 44 -229 44h-53v-434z" />
<glyph unicode="Q" horiz-adv-x="1265" d="M80 685q0 142 28.5 263t90 224.5t173 162t249 58.5t234.5 -40t158.5 -105.5t100.5 -157.5q72 -172 72 -406q0 -446 -242 -616q231 -27 434 -148l-147 -201q-27 27 -89.5 69t-125.5 73q-168 82 -387 119q-147 0 -257 58t-171.5 159.5t-91 223.5t-29.5 264zM365 673 q0 -480 268 -480t268 480t-268 480t-268 -480z" />
<glyph unicode="R" horiz-adv-x="1189" d="M131 0v1368h395q156 0 249 -26.5t165 -92.5q125 -111 125 -303q0 -236 -139 -340q-47 -37 -111 -61l350 -477l-221 -136l-405 570q-19 -2 -62 -2h-51v-500h-295zM426 717h23q203 0 260 43q72 49 72 163q0 117 -59 173q-58 56 -243 55h-53v-434z" />
<glyph unicode="S" horiz-adv-x="1021" d="M59 68l76 243q188 -86 357 -86q190 0 190 148q0 72 -63.5 123t-172 101t-154.5 76.5t-102 76.5q-104 92 -104 268t124 276.5t307 100.5t394 -78l-82 -223q-168 59 -286 59q-170 0 -172 -135q0 -55 36.5 -83t53 -39t67 -36.5t93.5 -49.5t78.5 -45.5t95 -66.5t90.5 -84 q82 -102 82 -231q0 -182 -126 -296t-339 -114q-102 0 -230.5 28t-212.5 67z" />
<glyph unicode="T" horiz-adv-x="1054" d="M20 1133v235h1014v-235h-362v-1133h-295v1133h-357z" />
<glyph unicode="U" horiz-adv-x="1241" d="M121 504v862h297v-852q0 -176 41 -231q41 -61 163 -61q1 0 1 -1q120 0 159 64q41 53 41 229v852h297v-862q0 -238 -96 -373q-123 -152 -403 -156q-281 0 -406 156q-94 137 -94 373z" />
<glyph unicode="V" horiz-adv-x="1132" d="M-8 1368h291l282 -1040l285 1040h291l-430 -1368h-289z" />
<glyph unicode="W" horiz-adv-x="1628" d="M74 1368h270l74 -1034l289 919h215l286 -917l74 1032h272l-137 -1368h-307l-297 1012l-295 -1012h-307z" />
<glyph unicode="X" horiz-adv-x="1228" d="M18 0l441 684l-420 682h315l258 -465l256 465h320l-426 -670l448 -696h-329l-273 473l-274 -473h-316z" />
<glyph unicode="Y" horiz-adv-x="1122" d="M-16 1368h299l278 -584l279 584h299l-430 -827v-541h-295v541z" />
<glyph unicode="Z" horiz-adv-x="1075" d="M66 180l579 950h-547l-30 238h886l19 -190l-576 -938h619v-240h-928z" />
<glyph unicode="[" horiz-adv-x="708" d="M119 -268v1800h534v-205l-266 -16v-1360l266 -12v-207h-534z" />
<glyph unicode="\" horiz-adv-x="876" d="M39 1497l215 64l584 -1743l-220 -60z" />
<glyph unicode="]" horiz-adv-x="708" d="M55 -61l267 12v1360l-267 16v205h535v-1800h-535v207z" />
<glyph unicode="^" horiz-adv-x="1021" d="M57 604l361 713h180l365 -713h-250l-203 410l-207 -410h-246z" />
<glyph unicode="_" horiz-adv-x="1093" d="M104 0v223h885v-223h-885z" />
<glyph unicode="`" horiz-adv-x="702" d="M119 1358l100 227l387 -223l-69 -160z" />
<glyph unicode="a" horiz-adv-x="1044" d="M43 274q0 92 39 158t100 96q113 54 235 54h16q111 0 179 -7v101q0 106 -43 137t-146.5 31t-232.5 -43l-59 180q76 45 185.5 68.5t187.5 23.5q209 0 298 -89t89 -304v-430q0 -57 51 -56q27 0 76 11l39 -170q-104 -57 -228 -57q-1 0 -1 -1q-123 0 -183 95 q-119 -98 -279 -98q-1 0 -1 -1q-158 0 -240 81t-82 220zM309 305q0 -141 135 -141q86 0 168 53v215q-57 4 -100 4q-203 0 -203 -131z" />
<glyph unicode="b" horiz-adv-x="1107" d="M106 45v1391h287v-453q43 35 116 60.5t146 25.5q168 0 276.5 -128t108.5 -366q0 -293 -118.5 -447.5t-380.5 -154.5q-113 0 -242 21.5t-193 50.5zM393 215q56 -10 107 -10q141 0 196.5 86t55.5 250t-44 229.5t-134.5 65.5t-180.5 -56v-565z" />
<glyph unicode="c" horiz-adv-x="897" d="M66 521.5q0 275.5 137 411.5t352 136q127 0 289 -47l-56 -207q-125 29 -200 29q-121 0 -185.5 -73t-64.5 -257t70.5 -256t197.5 -72q66 0 201 21l35 -187q-162 -47 -287 -47q-211 0 -350 136.5t-139 412z" />
<glyph unicode="d" horiz-adv-x="1093" d="M70 500q0 569 444 569q113 0 182 -37v422h289v-1468h-237l-17 77q-114 -81 -268 -81h-4q-193 0 -291 139t-98 379zM344 506q0 -309 184 -309q94 0 170 47v571q-67 29 -155 29q-199 0 -199 -338z" />
<glyph unicode="e" horiz-adv-x="983" d="M68 545q0 225 120.5 374.5t348.5 149.5q182 0 281.5 -97.5t99.5 -271.5q0 -102 -27 -204h-555q4 -307 270 -308q125 0 248 48l49 -195q-158 -68 -350 -68q-485 0 -485 572zM338 651h350v13q0 202 -142 202h-1q-172 0 -207 -215z" />
<glyph unicode="f" horiz-adv-x="837" d="M31 864v168l194 15v59q0 211 115 307t356 96q123 0 275 -49l-60 -205q-86 20 -205 21h-2q-116 0 -155 -46t-39 -151v-30h313l-18 -197h-295v-1233l-287 29v1204z" />
<glyph unicode="g" horiz-adv-x="1003" d="M31 -213q0 80 53 151.5t149 114.5q-66 43 -66 123q0 81 62 164q-74 53 -114.5 142t-40.5 194q0 178 99 288.5t292 110.5l180 -10q160 0 338 31l25 -158q-39 -10 -213 -35q72 -100 71 -227q0 -176 -101 -286.5t-292 -110.5q-68 0 -108 10q-12 -37 -13 -64q0 -67 114 -67h3 h176q158 0 246 -71t88 -196q0 -182 -139.5 -286.5t-360.5 -104.5t-334.5 75t-113.5 212zM268 -172q0 -115 233.5 -115t233.5 150q0 45 -33.5 67.5t-121.5 22.5h-207q-104 -35 -105 -125zM330 674q0 -90 33.5 -131t107.5 -41t106.5 41t32.5 134t-32.5 137t-106.5 44 q-141 0 -141 -184z" />
<glyph unicode="h" horiz-adv-x="1118" d="M109 0v1427l286 19v-490q62 48 146 80.5t170 32.5t149.5 -25.5t95.5 -76.5q59 -92 60 -248v-719h-299v668q0 131 -55 155q-27 12 -72 13q-115 0 -195 -76v-760h-286z" />
<glyph unicode="i" horiz-adv-x="503" d="M82 1386.5q0 69.5 49 118.5t118.5 49t119 -49t49.5 -117.5t-49.5 -119.5t-119 -51t-118.5 50t-49 119.5zM109 0v1049l286 24v-1073h-286z" />
<glyph unicode="j" horiz-adv-x="499" d="M-158 -203q145 25 206 96.5t61 229.5v917l284 29v-965q0 -502 -528 -528zM78 1388.5q0 71.5 50 122t122 50.5t122 -50.5t50 -121t-50 -123t-122 -52.5t-122 51.5t-50 123z" />
<glyph unicode="k" horiz-adv-x="1134" d="M109 0v1432l286 20v-852l348 449h312l-379 -474l459 -575h-328l-412 535v-535h-286z" />
<glyph unicode="l" horiz-adv-x="632" d="M111 330v1104h288v-1121q0 -59 17.5 -83.5t71 -24.5t110.5 14l43 -201q-104 -45 -202.5 -45t-162 22.5t-95 51.5t-48 84t-19.5 93t-3 106z" />
<glyph unicode="m" horiz-adv-x="1712" d="M109 0v1051h235l25 -117q53 53 146 94t197.5 41t162 -35t92.5 -106q55 57 150 99t192 42q176 0 238.5 -91t62.5 -259v-719h-287v668q0 131 -55 155q-27 12 -72 13q-115 0 -195 -76q2 -14 3 -43v-717h-287v668q0 131 -55 155q-27 12 -72 13q-115 0 -195 -76v-760h-286z " />
<glyph unicode="n" horiz-adv-x="1118" d="M109 0v1051h241l25 -117q59 55 150.5 95t183.5 40q178 0 242.5 -91t64.5 -259v-719h-287v668q0 80 -25.5 124t-124 44t-178.5 -76v-760h-292z" />
<glyph unicode="o" d="M68 520.5q0 284.5 125.5 416.5t330.5 132q455 0 455 -547q0 -284 -127 -416.5t-334 -132.5t-328.5 131.5t-121.5 416zM344 520q0 -327 177 -327h1q84 0 131 72.5t47 260t-45 255t-132 67.5t-133 -67.5t-46 -260.5z" />
<glyph unicode="p" horiz-adv-x="1101" d="M109 -436v1487h245l25 -84q131 102 268 102q190 0 288.5 -141.5t98.5 -382.5q0 -571 -469 -572q-78 0 -170 37v-413zM395 219q57 -14 123 -14q233 0 234 332q0 299 -195 299q-78 0 -162 -52v-565z" />
<glyph unicode="q" horiz-adv-x="1107" d="M68 467q0 602 522 602q111 0 229.5 -22.5t181.5 -55.5v-1446l-286 19v475q-104 -66 -267 -66t-271.5 128t-108.5 366zM356 502q0 -164 44 -230.5t132.5 -66.5t182.5 41v575q-54 17 -117 17q-135 0 -188.5 -86t-53.5 -250z" />
<glyph unicode="r" horiz-adv-x="772" d="M109 0v1051h237l23 -133q118 155 301 155h2q51 0 94 -10l-47 -236q-45 13 -88 13q-168 0 -236 -97v-743h-286z" />
<glyph unicode="s" horiz-adv-x="858" d="M47 41l70 205q160 -53 287.5 -53t127.5 100q0 43 -47 78t-113.5 64.5t-133 64.5t-113.5 98.5t-47 146.5q0 158 104.5 242t299 84t304.5 -63l-67 -203q-142 43 -234 43q-139 0 -139 -92q0 -49 47 -84t113.5 -60.5t133.5 -57.5t114 -91.5t47 -145.5q0 -154 -104.5 -249 t-307.5 -95q-92 0 -193.5 20.5t-148.5 47.5z" />
<glyph unicode="t" horiz-adv-x="825" d="M31 864v168l190 17v239l287 25v-262h299l-16 -199h-285v-541q0 -59 18.5 -84.5t78 -25.5t132.5 18l43 -203q-100 -43 -203.5 -43t-155.5 12.5t-86 29t-57.5 48t-35 56t-17.5 69.5q-8 62 -8 150v514z" />
<glyph unicode="u" horiz-adv-x="1112" d="M102 324v727h287v-676q0 -82 24.5 -125t122 -43t181.5 63v781h287v-1078h-236l-25 123q-158 -123 -335 -123t-241.5 91.5t-64.5 259.5z" />
<glyph unicode="v" d="M20 1051h289l213 -822l219 822h289l-328 -1051h-360z" />
<glyph unicode="w" horiz-adv-x="1411" d="M43 1051h281l106 -822l141 803l265 19l149 -815l113 815h280l-235 -1051h-307l-127 764l-129 -764h-320z" />
<glyph unicode="x" horiz-adv-x="1079" d="M12 0l365 545l-328 506h307l191 -353l190 353h299l-325 -510l352 -541h-303l-219 391l-222 -391h-307z" />
<glyph unicode="y" horiz-adv-x="1028" d="M-41 -399l43 198q0 -2 61.5 -11t79.5 -9q115 0 163 42t87 206l-383 997l273 35l235 -725l209 717h277l-332 -965q-106 -307 -201.5 -414.5t-296.5 -107.5q-92 0 -215 37z" />
<glyph unicode="z" horiz-adv-x="923" d="M51 154l461 698h-420l-20 197h735l27 -160l-463 -694h491l25 -195h-811z" />
<glyph unicode="{" horiz-adv-x="755" d="M37 532v213h88q43 0 47 60q4 37 4 80q6 207 10 305q6 166 95.5 260t238.5 94h182v-194h-194q-82 0 -82 -164l-4 -264q-4 -205 -92 -283q88 -78 92 -283l4 -264q0 -164 82 -164h194v-194h-182q-150 0 -238.5 94t-95.5 260q-2 47 -5 154.5t-4 136.5t-2 55.5t-2 38.5t-5 29 q-10 31 -43 30h-88z" />
<glyph unicode="|" horiz-adv-x="479" d="M121 -88v1509h237v-1509h-237z" />
<glyph unicode="}" horiz-adv-x="755" d="M53 -72h195q82 0 82 164l4 264q4 205 92 283q-88 78 -92 283l-4 264q0 164 -82 164h-195v194h183q150 0 238.5 -94t94.5 -260q2 -47 5.5 -154.5t4.5 -136.5t2 -55.5t2 -38.5t7 -29q8 -31 41 -31h88v-213h-88q-43 0 -49 -59q-2 -37 -4 -80q-4 -207 -9 -305 q-6 -166 -95 -260t-238 -94h-183v194z" />
<glyph unicode="~" horiz-adv-x="1161" d="M70 555q119 213 280 213q106 0 262 -74q144 -63 203 -63q84 0 150 94l129 -113q-119 -211 -295 -211q-96 0 -235.5 68t-219.5 68t-145 -95z" />
<glyph unicode="&#xa1;" horiz-adv-x="491" d="M76 916.5q0 68.5 49 119.5t118.5 51t119 -50t49.5 -119.5t-49.5 -118.5t-119 -49t-118.5 49t-49 117.5zM96 -365l45 996h215l39 -996h-299z" />
<glyph unicode="&#xa2;" horiz-adv-x="901" d="M53 693q0 249 113 384t299 158l-12 238h184l-14 -236q78 -6 208 -43l-55 -207q-125 29 -201 29q-121 0 -185 -73t-64 -257t70.5 -256t197.5 -72q66 0 201 21l34 -186q-106 -33 -204 -46l12 -221h-184l12 224q-182 25 -297 159.5t-115 383.5z" />
<glyph unicode="&#xa3;" horiz-adv-x="1009" d="M74 623v204h114q-25 74 -24 179q0 188 109.5 290.5t284.5 102.5t362 -86l-78 -205q-160 66 -251 66t-134 -42t-43 -125t30 -180h271l12 -204h-221q10 -51 10 -123q0 -139 -65 -264h493v-236h-817v205q66 33 104.5 123t38.5 171t-16 124h-180z" />
<glyph unicode="&#xa5;" horiz-adv-x="1241" d="M43 1368h299l279 -584l278 584h299l-358 -690h231v-172h-303v-109h303v-174h-303v-223h-295v223h-303v174h303v109h-303v172h231z" />
<glyph unicode="&#xa7;" horiz-adv-x="776" d="M49 588q0 180 160 286q-29 86 -29 150q0 252 258 346q33 12 129 35l47 -203l-94 -33q-113 -41 -112 -125q0 -66 131 -260t160.5 -262.5t29.5 -142.5q0 -188 -164 -291q33 -66 33 -152t-31.5 -149t-91.5 -115q-109 -90 -266 -110l-47 198l96 31q111 39 111 125 q0 37 -17 64q-29 70 -51 102.5t-46 69t-37 57t-46 67.5q-55 80 -89 153t-34 159zM278.5 617q0.5 -46 24 -103t129.5 -209l31 -43q37 41 37 81t-21.5 96.5t-165.5 256.5q-35 -33 -34.5 -79z" />
<glyph unicode="&#xa8;" horiz-adv-x="733" d="M35 1364q0 59 40 100t100.5 41t101 -41t40.5 -100t-40.5 -101t-101 -42t-100.5 42t-40 101zM412 1364q0 59 41 100t100 41t100 -41t41 -100t-41 -101t-100 -42t-100 42t-41 101z" />
<glyph unicode="&#xa9;" horiz-adv-x="1466" d="M78 618.5q0 274.5 190.5 465t465 190.5t465 -190.5t190.5 -465t-190.5 -465t-465 -190.5t-465 190.5t-190.5 465zM229 614.5q0 -225.5 143.5 -374t360.5 -148.5t359.5 150.5t142.5 376t-142.5 372t-359.5 146.5t-360.5 -148.5t-143.5 -374zM399 610.5q0 202.5 102.5 306 t239 103.5t234.5 -66l-49 -106q-78 49 -169 49t-152.5 -69.5t-61.5 -217t61.5 -218t150.5 -70.5t185 55l45 -101q-106 -76 -243.5 -75.5t-240 104t-102.5 306z" />
<glyph unicode="&#xaa;" horiz-adv-x="700" d="M71 1006q1 88 65.5 125.5t136 37.5t110.5 -4v54q0 53 -22.5 69.5t-72.5 16.5t-134 -27l-37 108q86 53 206.5 53.5t170 -50t49.5 -168.5v-240q0 -25 23.5 -25t45.5 9l23 -103q-61 -35 -129 -35t-103 50q-68 -51 -154.5 -51.5t-132.5 46t-45 134.5zM225.5 1010.5 q-0.5 -70.5 67.5 -70.5q47 0 90 27v112h-21l-30 2q-106 0 -106.5 -70.5z" />
<glyph unicode="&#xab;" horiz-adv-x="1146" d="M74 506v121l360 379l168 -144l-287 -297l287 -291l-168 -149zM547 506v121l360 379l168 -144l-284 -297l284 -291l-168 -149z" />
<glyph unicode="&#xac;" horiz-adv-x="1159" d="M104 682v223h936v-444h-225v221h-711z" />
<glyph unicode="&#xad;" horiz-adv-x="1042" d="M104 457v223h834v-223h-834z" />
<glyph unicode="&#xae;" horiz-adv-x="1466" d="M78 618.5q0 274.5 190.5 465t465 190.5t465 -190.5t190.5 -465t-190.5 -465t-465 -190.5t-465 190.5t-190.5 465zM229 614.5q0 -225.5 143.5 -374t360.5 -148.5t359.5 150.5t142.5 376t-142.5 372t-359.5 146.5t-360.5 -148.5t-143.5 -374zM481 227v791h197 q309 0 309 -238q0 -127 -76 -188q-31 -27 -67 -39q6 -12 87 -118.5t124 -155.5l-86 -64q-127 137 -244 317q-53 -4 -80 -4h-43v-301h-121zM602 625h41q129 -1 168 32q49 35 49 120t-49 117t-149 32h-60v-301z" />
<glyph unicode="&#xaf;" horiz-adv-x="1089" d="M92 1108v223h905v-223h-905z" />
<glyph unicode="&#xb0;" horiz-adv-x="636" d="M72 1154q0 103 63.5 174t183 71t183 -69.5t63.5 -172t-64.5 -176.5t-184 -74t-182 72t-62.5 175zM213 1153q0 -47 25.5 -81t78.5 -34q109 0 109 114t-109 114q-53 0 -78.5 -33t-25.5 -80z" />
<glyph unicode="&#xb1;" d="M104 682v225h306v297h227v-297h305v-225h-305v-299h-227v299h-306zM106 2v223h834v-223h-834z" />
<glyph unicode="&#xb4;" horiz-adv-x="700" d="M102 1362l387 223l101 -227l-418 -156z" />
<glyph unicode="&#xb5;" horiz-adv-x="1234" d="M125 -412v1463h287v-676q0 -82 24.5 -125t121.5 -43t181 63v781h287v-801q0 -57 51 -57q27 0 76 12l39 -170q-104 -57 -223 -58q-154 0 -203 132q-115 -115 -256 -115q-55 0 -98 18v-424h-287z" />
<glyph unicode="&#xb6;" horiz-adv-x="1036" d="M43 1044.5q0 135.5 95 229.5t231 94h610v-131h-148v-1569h-151v1569h-152v-1569h-159v1051q-135 0 -230.5 95t-95.5 230.5z" />
<glyph unicode="&#xb7;" horiz-adv-x="507" d="M86 538.5q0 69.5 49 119t119 49.5t119 -49.5t49 -118t-49 -119.5t-119 -51t-119 50t-49 119.5z" />
<glyph unicode="&#xb8;" horiz-adv-x="565" d="M109 -471q119 88 118 186q0 57 -43 168h254q37 -79 37 -155q0 -199 -262 -332z" />
<glyph unicode="&#xba;" horiz-adv-x="665" d="M76 1129.5q0 160.5 71.5 235.5t186.5 75q256 0 256 -307q0 -160 -72 -235t-188.5 -75t-185 73t-68.5 233.5zM238 1130q0 -178 95 -178t95 178q0 104 -23.5 141.5t-70.5 37.5t-71.5 -37t-24.5 -142z" />
<glyph unicode="&#xbb;" horiz-adv-x="1148" d="M76 279l284 290l-284 297l168 144l360 -379v-121l-360 -381zM549 279l287 290l-287 297l168 144l360 -379v-121l-360 -381z" />
<glyph unicode="&#xbf;" horiz-adv-x="739" d="M43 -45q0 84 33 144.5t60.5 88t77.5 71.5t79 73.5t57.5 83t34.5 112.5l4 111h234q6 -74 6 -137q-8 -68 -42 -133.5t-64.5 -101.5t-78 -80t-67.5 -64q-70 -70 -70 -152q0 -170 336 -200l-51 -189q-256 12 -402.5 117.5t-146.5 255.5zM342 918.5q0 66.5 46 114.5t112.5 48 t114 -48t47.5 -114.5t-47.5 -112.5t-114 -46t-112.5 46t-46 112.5z" />
<glyph unicode="&#xc0;" horiz-adv-x="1163" d="M-8 0l434 1368h313l428 -1368h-290l-97 324h-395l-94 -324h-299zM313 1655l101 227l387 -223l-70 -160zM449 547h268l-135 538z" />
<glyph unicode="&#xc1;" horiz-adv-x="1163" d="M-8 0l434 1368h313l428 -1368h-290l-97 324h-395l-94 -324h-299zM446 1665l388 223l100 -227l-418 -156zM449 547h268l-135 538z" />
<glyph unicode="&#xc2;" horiz-adv-x="1163" d="M-8 0l434 1368h313l428 -1368h-290l-97 324h-395l-94 -324h-299zM281 1563l227 243h151l228 -243l-131 -107l-172 174l-172 -174zM449 547h268l-135 538z" />
<glyph unicode="&#xc3;" horiz-adv-x="1163" d="M-8 0l434 1368h313l428 -1368h-290l-97 324h-395l-94 -324h-299zM229 1630q37 61 97.5 107.5t117 46.5t148.5 -44t138 -44t106 71l100 -110q-37 -61 -99.5 -107.5t-118.5 -46.5t-146.5 44t-136.5 44t-105 -71zM449 547h268l-135 538z" />
<glyph unicode="&#xc4;" horiz-adv-x="1163" d="M-8 0l434 1368h313l428 -1368h-290l-97 324h-395l-94 -324h-299zM254 1607.5q0 59.5 40 100.5t100.5 41t101.5 -41t41 -100.5t-41 -101.5t-101.5 -42t-100.5 42t-40 101.5zM449 547h268l-135 538zM631 1607.5q0 59.5 41 100.5t100 41t100 -41t41 -100.5t-41 -101.5 t-100 -42t-100 42t-41 101.5z" />
<glyph unicode="&#xc5;" horiz-adv-x="1163" d="M-8 0l434 1368h313l428 -1368h-290l-97 324h-395l-94 -324h-299zM371 1669q0 88 54 148.5t156.5 60.5t157 -59.5t54.5 -147.5t-55.5 -150.5t-158 -62.5t-155.5 61.5t-53 149.5zM449 547h268l-135 538zM510 1667q0 -33 17.5 -56.5t54.5 -23.5q74 0 73.5 80t-73 80 t-72.5 -80z" />
<glyph unicode="&#xc6;" horiz-adv-x="1673" d="M-14 0l589 1368h994v-238h-568v-309h535v-229h-535v-356h586v-238h-829v326h-346l-129 -324h-297zM500 547h239v622z" />
<glyph unicode="&#xc7;" horiz-adv-x="1062" d="M80 688q0 195 53 337t146 220q172 145 415 146q154 0 310 -45l-48 -211q-117 23 -217 22q-166 0 -262 -103.5t-96 -362.5t98.5 -366.5t272.5 -107.5q121 0 219 16l18 -223q-162 -37 -300 -37t-239.5 36t-187.5 116q-182 170 -182 563zM502 -471q119 88 119 186 q0 57 -43 168h253q37 -79 37 -155q0 -199 -262 -332z" />
<glyph unicode="&#xc8;" horiz-adv-x="1097" d="M131 0v1370h862v-237h-567v-310h535v-229h-535v-356h586v-238h-881zM307 1655l101 227l387 -223l-70 -160z" />
<glyph unicode="&#xc9;" horiz-adv-x="1097" d="M131 0v1370h862v-237h-567v-310h535v-229h-535v-356h586v-238h-881zM295 1665l387 223l100 -227l-417 -156z" />
<glyph unicode="&#xca;" horiz-adv-x="1097" d="M131 0v1370h862v-237h-567v-310h535v-229h-535v-356h586v-238h-881zM221 1563l228 243h151l227 -243l-131 -107l-172 174l-172 -174z" />
<glyph unicode="&#xcb;" horiz-adv-x="1097" d="M131 0v1370h862v-237h-567v-310h535v-229h-535v-356h586v-238h-881zM219 1607.5q0 59.5 40 100.5t100.5 41t101.5 -41t41 -100.5t-41 -101.5t-101.5 -42t-100.5 42t-40 101.5zM596 1607.5q0 59.5 41 100.5t100.5 41t100.5 -41t41 -100.5t-41 -101.5t-100.5 -42t-100.5 42 t-41 101.5z" />
<glyph unicode="&#xcc;" horiz-adv-x="557" d="M-45 1655l100 227l387 -223l-69 -160zM131 0v1368h295v-1368h-295z" />
<glyph unicode="&#xcd;" horiz-adv-x="557" d="M96 1665l387 223l101 -227l-418 -156zM131 0v1368h295v-1368h-295z" />
<glyph unicode="&#xce;" horiz-adv-x="557" d="M-33 1563l228 243h151l227 -243l-131 -107l-172 174l-172 -174zM131 0v1368h295v-1368h-295z" />
<glyph unicode="&#xcf;" horiz-adv-x="557" d="M-72 1607.5q0 59.5 40 100.5t100.5 41t101.5 -41t41 -100.5t-41 -101.5t-101.5 -42t-100.5 42t-40 101.5zM131 0v1368h295v-1368h-295zM305 1607.5q0 59.5 41 100.5t100.5 41t100.5 -41t41 -100.5t-41 -101.5t-100.5 -42t-100.5 42t-41 101.5z" />
<glyph unicode="&#xd0;" horiz-adv-x="1337" d="M43 573v230h195v563h385q258 0 360 -53q270 -139 270 -631q0 -221 -64.5 -389t-203.5 -238q-111 -55 -362 -55h-385v573h-195zM532 264h103q195 0 261.5 101.5t66.5 318.5t-66 317.5t-262 100.5h-103v-299h236v-230h-236v-309z" />
<glyph unicode="&#xd1;" horiz-adv-x="1396" d="M131 0v1368h311l537 -958v958h287v-1368h-312l-538 956v-956h-285zM324 1630q37 61 97 107.5t116.5 46.5t148.5 -44t138 -44t106 71l100 -110q-37 -61 -99.5 -107.5t-118.5 -46.5t-146.5 44t-136.5 44t-105 -71z" />
<glyph unicode="&#xd2;" horiz-adv-x="1265" d="M80 684q0 289 119 487q61 105 172.5 163.5t249 58.5t234.5 -40t158.5 -105.5t100.5 -157.5q72 -172 72 -406q0 -291 -117 -487q-61 -102 -174 -162t-251 -60t-234.5 40t-158 105.5t-99.5 158.5q-72 172 -72 405zM365 679q0 -210 59 -332t208.5 -122t209 122t59.5 300 t-20.5 275.5t-82 164t-152.5 66.5t-145.5 -36t-82.5 -103q-53 -125 -53 -335zM373 1655l100 227l387 -223l-69 -160z" />
<glyph unicode="&#xd3;" horiz-adv-x="1265" d="M80 684q0 289 119 487q61 105 172.5 163.5t249 58.5t234.5 -40t158.5 -105.5t100.5 -157.5q72 -172 72 -406q0 -291 -117 -487q-61 -102 -174 -162t-251 -60t-234.5 40t-158 105.5t-99.5 158.5q-72 172 -72 405zM365 679q0 -210 59 -332t208.5 -122t209 122t59.5 300 t-20.5 275.5t-82 164t-152.5 66.5t-145.5 -36t-82.5 -103q-53 -125 -53 -335zM395 1665l387 223l101 -227l-418 -156z" />
<glyph unicode="&#xd4;" horiz-adv-x="1265" d="M80 684q0 289 119 487q61 105 172.5 163.5t249 58.5t234.5 -40t158.5 -105.5t100.5 -157.5q72 -172 72 -406q0 -291 -117 -487q-61 -102 -174 -162t-251 -60t-234.5 40t-158 105.5t-99.5 158.5q-72 172 -72 405zM332 1563l227 243h152l227 -243l-131 -107l-172 174 l-172 -174zM365 679q0 -210 59 -332t208.5 -122t209 122t59.5 300t-20.5 275.5t-82 164t-152.5 66.5t-145.5 -36t-82.5 -103q-53 -125 -53 -335z" />
<glyph unicode="&#xd5;" horiz-adv-x="1265" d="M80 684q0 289 119 487q61 105 172.5 163.5t249 58.5t234.5 -40t158.5 -105.5t100.5 -157.5q72 -172 72 -406q0 -291 -117 -487q-61 -102 -174 -162t-251 -60t-234.5 40t-158 105.5t-99.5 158.5q-72 172 -72 405zM274 1624q37 61 97.5 107.5t117 46.5t147.5 -44t138 -44 t107 71l100 -110q-37 -61 -99.5 -107.5t-118.5 -46.5t-146.5 44t-136.5 44t-105 -72zM365 679q0 -210 59 -332t208.5 -122t209 122t59.5 300t-20.5 275.5t-82 164t-152.5 66.5t-145.5 -36t-82.5 -103q-53 -125 -53 -335z" />
<glyph unicode="&#xd6;" horiz-adv-x="1265" d="M80 684q0 289 119 487q61 105 172.5 163.5t249 58.5t234.5 -40t158.5 -105.5t100.5 -157.5q72 -172 72 -406q0 -291 -117 -487q-61 -102 -174 -162t-251 -60t-234.5 40t-158 105.5t-99.5 158.5q-72 172 -72 405zM291 1607.5q0 59.5 40 100.5t100.5 41t101 -41 t40.5 -100.5t-40.5 -101.5t-101 -42t-100.5 42t-40 101.5zM365 679q0 -210 59 -332t208.5 -122t209 122t59.5 300t-20.5 275.5t-82 164t-152.5 66.5t-145.5 -36t-82.5 -103q-53 -125 -53 -335zM668 1607.5q0 59.5 41 100.5t100 41t100 -41t41 -100.5t-41 -101.5t-100 -42 t-100 42t-41 101.5z" />
<glyph unicode="&#xd8;" horiz-adv-x="1265" d="M80 684q0 289 119 487q61 104 172.5 163t263.5 59q78 0 137 -15l88 215l211 -77l-96 -234q211 -176 211 -598q0 -291 -117 -487q-61 -102 -174 -162t-240 -60t-211 25l-92 -225l-215 73l113 273q-170 180 -170 563zM365 666q0 -123 22 -215l289 698q-29 4 -43 4 q-156 0 -215 -139q-53 -125 -53 -348zM543 240q37 -15 90 -15q150 0 209 122t59 329t-45 319z" />
<glyph unicode="&#xd9;" horiz-adv-x="1241" d="M121 504v862h297v-852q0 -176 41 -231q41 -61 162.5 -61.5t160.5 63.5q41 53 41 229v852h297v-862q0 -238 -96 -373q-123 -152 -403 -156q-281 0 -406 156q-94 137 -94 373zM365 1655l100 227l387 -223l-70 -160z" />
<glyph unicode="&#xda;" horiz-adv-x="1241" d="M121 504v862h297v-852q0 -176 41 -231q41 -61 162.5 -61.5t160.5 63.5q41 53 41 229v852h297v-862q0 -238 -96 -373q-123 -152 -403 -156q-281 0 -406 156q-94 137 -94 373zM414 1665l387 223l100 -227l-418 -156z" />
<glyph unicode="&#xdb;" horiz-adv-x="1241" d="M121 504v862h297v-852q0 -176 41 -231q41 -61 162.5 -61.5t160.5 63.5q41 53 41 229v852h297v-862q0 -238 -96 -373q-123 -152 -403 -156q-281 0 -406 156q-94 137 -94 373zM324 1563l227 243h151l228 -243l-131 -107l-172 174l-172 -174z" />
<glyph unicode="&#xdc;" horiz-adv-x="1241" d="M121 504v862h297v-852q0 -176 41 -231q41 -61 162.5 -61.5t160.5 63.5q41 53 41 229v852h297v-862q0 -238 -96 -373q-123 -152 -403 -156q-281 0 -406 156q-94 137 -94 373zM297 1607.5q0 59.5 40 100.5t100.5 41t101.5 -41t41 -100.5t-41 -101.5t-101.5 -42t-100.5 42 t-40 101.5zM674 1607.5q0 59.5 41 100.5t100 41t100 -41t41 -100.5t-41 -101.5t-100 -42t-100 42t-41 101.5z" />
<glyph unicode="&#xdd;" horiz-adv-x="1122" d="M-16 1368h299l278 -584l279 584h299l-430 -827v-541h-295v541zM358 1665l387 223l101 -227l-418 -156z" />
<glyph unicode="&#xde;" horiz-adv-x="1032" d="M131 0v1427h213v-204h115q158 0 250 -24.5t161 -88.5q121 -106 121 -301q0 -231 -133 -330q-74 -57 -175 -80.5t-275 -23.5h-64v-375h-213zM344 565h86q201 0 273.5 51.5t72.5 171t-63.5 182t-251.5 62.5h-117v-467z" />
<glyph unicode="&#xdf;" horiz-adv-x="1236" d="M109 -264v1278q0 233 128 347t345 114t320.5 -92.5t103.5 -243.5q0 -104 -76 -185q-33 -35 -66 -64.5t-55.5 -62t-22.5 -65.5t17.5 -58.5t36 -36t68.5 -33t78 -35.5t77 -44t72 -59q66 -82 65 -183q0 -158 -101.5 -249t-275.5 -91q-84 0 -194.5 32t-165.5 71l72 200 q190 -80 298.5 -79.5t108.5 100.5q0 41 -44 72.5t-106.5 59.5t-124 62.5t-105.5 100t-44 145.5t34 139.5t73 92.5q106 90 106 153q0 131 -141 131q-104 0 -151.5 -58t-47.5 -185v-1274h-282z" />
<glyph unicode="&#xe0;" horiz-adv-x="1044" d="M43 274q0 92 39 158t100 96q113 53 235 53.5t195 -6.5v101q0 106 -43 137t-146.5 31t-232.5 -43l-59 180q76 45 185.5 68.5t187.5 23.5q209 0 298 -89t89 -304v-430q0 -57 51 -57q27 0 76 12l39 -170q-104 -57 -228 -57.5t-184 94.5q-119 -98 -278.5 -98.5t-241.5 80.5 t-82 220zM238 1358l100 227l387 -223l-70 -160zM309 305q0 -141 135 -141q86 0 168 53v215q-57 4 -100 4q-203 0 -203 -131z" />
<glyph unicode="&#xe1;" horiz-adv-x="1044" d="M43 274q0 92 39 158t100 96q113 53 235 53.5t195 -6.5v101q0 106 -43 137t-146.5 31t-232.5 -43l-59 180q76 45 185.5 68.5t187.5 23.5q209 0 298 -89t89 -304v-430q0 -57 51 -57q27 0 76 12l39 -170q-104 -57 -228 -57.5t-184 94.5q-119 -98 -278.5 -98.5t-241.5 80.5 t-82 220zM248 1362l387 223l100 -227l-418 -156zM309 305q0 -141 135 -141q86 0 168 53v215q-57 4 -100 4q-203 0 -203 -131z" />
<glyph unicode="&#xe2;" horiz-adv-x="1044" d="M43 274q0 92 39 158t100 96q113 53 235 53.5t195 -6.5v101q0 106 -43 137t-146.5 31t-232.5 -43l-59 180q76 45 185.5 68.5t187.5 23.5q209 0 298 -89t89 -304v-430q0 -57 51 -57q27 0 76 12l39 -170q-104 -57 -228 -57.5t-184 94.5q-119 -98 -278.5 -98.5t-241.5 80.5 t-82 220zM186 1317l228 244h151l228 -244l-131 -107l-173 174l-172 -174zM309 305q0 -141 135 -141q86 0 168 53v215q-57 4 -100 4q-203 0 -203 -131z" />
<glyph unicode="&#xe3;" horiz-adv-x="1044" d="M43 274q0 92 39 158t100 96q113 53 235 53.5t195 -6.5v101q0 106 -43 137t-146.5 31t-232.5 -43l-59 180q76 45 185.5 68.5t187.5 23.5q209 0 298 -89t89 -304v-430q0 -57 51 -57q27 0 76 12l39 -170q-104 -57 -228 -57.5t-184 94.5q-119 -98 -278.5 -98.5t-241.5 80.5 t-82 220zM133 1337q37 61 97.5 107.5t115.5 46.5t147.5 -44t139.5 -44t106 72l101 -111q-37 -61 -99.5 -107.5t-119 -46.5t-146.5 44t-136 44t-106 -71zM309 305q0 -141 135 -141q86 0 168 53v215q-57 4 -100 4q-203 0 -203 -131z" />
<glyph unicode="&#xe4;" horiz-adv-x="1044" d="M43 274q0 92 39 158t100 96q113 53 235 53.5t195 -6.5v101q0 106 -43 137t-146.5 31t-232.5 -43l-59 180q76 45 185.5 68.5t187.5 23.5q209 0 298 -89t89 -304v-430q0 -57 51 -57q27 0 76 12l39 -170q-104 -57 -228 -57.5t-184 94.5q-119 -98 -278.5 -98.5t-241.5 80.5 t-82 220zM178 1364q0 59 40 100t100.5 41t101.5 -41t41 -100t-41 -101t-101.5 -42t-100.5 42t-40 101zM309 305q0 -141 135 -141q86 0 168 53v215q-57 4 -100 4q-203 0 -203 -131zM555 1364q0 59 41 100t100.5 41t100.5 -41t41 -100t-41 -101t-100.5 -42t-100.5 42t-41 101z " />
<glyph unicode="&#xe5;" horiz-adv-x="1044" d="M43 274q0 92 39 158t100 96q113 53 235 53.5t195 -6.5v101q0 106 -43 137t-146.5 31t-232.5 -43l-59 180q76 45 185.5 68.5t187.5 23.5q209 0 298 -89t89 -304v-430q0 -57 51 -57q27 0 76 12l39 -170q-104 -57 -228 -57.5t-184 94.5q-119 -98 -278.5 -98.5t-241.5 80.5 t-82 220zM287 1434q0 88 54 148t156.5 60t157 -59t54.5 -147t-55.5 -150.5t-158 -62.5t-155.5 61.5t-53 149.5zM309 305q0 -141 135 -141q86 0 168 53v215q-57 4 -100 4q-203 0 -203 -131zM426 1432q0 -33 17.5 -56.5t54.5 -23.5q74 0 73.5 79.5t-73 79.5t-72.5 -79z" />
<glyph unicode="&#xe6;" horiz-adv-x="1527" d="M43 274q0 92 39 158t100 96q113 53 242 53.5t203 -6.5v101q0 106 -43 137t-154 31t-240 -43l-59 180q76 45 185.5 68.5t205.5 23.5t165 -28.5t108 -108.5q96 133 282.5 133t285.5 -97.5t99 -271.5q0 -86 -26 -204h-555q4 -307 270 -308q125 0 248 48l49 -195 q-158 -68 -355.5 -68t-316.5 115q-59 -43 -165.5 -79t-211.5 -36q-172 0 -264 80t-92 221zM309 305q0 -141 160 -141q152 0 231 53q-39 88 -53 215q-57 4 -121 4q-217 0 -217 -131zM874 651h359v13q0 203 -150 202q-174 0 -209 -215z" />
<glyph unicode="&#xe7;" horiz-adv-x="897" d="M66 521.5q0 275.5 137 411.5t352 136q127 0 289 -47l-56 -207q-125 29 -200 29q-121 0 -185.5 -73t-64.5 -257t70.5 -256t197.5 -72q66 0 201 21l35 -187q-162 -47 -287 -47q-211 0 -350 136.5t-139 412zM356 -471q119 88 119 186q0 57 -43 168h254q37 -79 37 -155 q0 -199 -262 -332z" />
<glyph unicode="&#xe8;" horiz-adv-x="983" d="M68 545q0 225 120.5 374.5t348.5 149.5q182 0 281.5 -97.5t99.5 -271.5q0 -102 -27 -204h-555q4 -307 270 -308q125 0 248 48l49 -195q-158 -68 -350 -68q-485 0 -485 572zM266 1358l101 227l387 -223l-70 -160zM338 651h350v13q0 203 -143 202q-172 0 -207 -215z" />
<glyph unicode="&#xe9;" horiz-adv-x="983" d="M68 545q0 225 120.5 374.5t348.5 149.5q182 0 281.5 -97.5t99.5 -271.5q0 -102 -27 -204h-555q4 -307 270 -308q125 0 248 48l49 -195q-158 -68 -350 -68q-485 0 -485 572zM285 1362l387 223l100 -227l-418 -156zM338 651h350v13q0 203 -143 202q-172 0 -207 -215z" />
<glyph unicode="&#xea;" horiz-adv-x="983" d="M68 545q0 225 120.5 374.5t348.5 149.5q182 0 281.5 -97.5t99.5 -271.5q0 -102 -27 -204h-555q4 -307 270 -308q125 0 248 48l49 -195q-158 -68 -350 -68q-485 0 -485 572zM221 1317l228 244h151l227 -244l-131 -107l-172 174l-172 -174zM338 651h350v13q0 203 -143 202 q-172 0 -207 -215z" />
<glyph unicode="&#xeb;" horiz-adv-x="983" d="M68 545q0 225 120.5 374.5t348.5 149.5q182 0 281.5 -97.5t99.5 -271.5q0 -102 -27 -204h-555q4 -307 270 -308q125 0 248 48l49 -195q-158 -68 -350 -68q-485 0 -485 572zM197 1364q0 59 39.5 100t100 41t101.5 -41t41 -100t-41 -101t-101.5 -42t-100 42t-39.5 101z M338 651h350v13q0 203 -143 202q-172 0 -207 -215zM573 1364q0 59 41 100t100.5 41t100.5 -41t41 -100t-41 -101t-100.5 -42t-100.5 42t-41 101z" />
<glyph unicode="&#xec;" horiz-adv-x="503" d="M-39 1358l100 227l388 -223l-70 -160zM109 0v1049l286 24v-1073h-286z" />
<glyph unicode="&#xed;" horiz-adv-x="503" d="M78 1362l387 223l100 -227l-418 -156zM109 0v1049l286 24v-1073h-286z" />
<glyph unicode="&#xee;" horiz-adv-x="503" d="M-43 1317l227 244h152l227 -244l-131 -107l-172 174l-172 -174zM109 0v1049l286 24v-1073h-286z" />
<glyph unicode="&#xef;" horiz-adv-x="503" d="M-66 1364q0 59 40 100t100.5 41t101.5 -41t41 -100t-41 -101t-101.5 -42t-100.5 42t-40 101zM109 0v1049l286 24v-1073h-286zM311 1364q0 59 41 100t100.5 41t100.5 -41t41 -100t-41 -101t-100.5 -42t-100.5 42t-41 101z" />
<glyph unicode="&#xf0;" horiz-adv-x="1021" d="M72 494.5q0 226.5 100 336t272 109.5q115 0 193 -45q-23 178 -129 274l-152 -155l-123 119l117 118q-86 25 -241 33l36 189q221 0 375 -52l137 144l119 -123l-96 -99q264 -188 264 -714q0 -359 -115.5 -506.5t-324.5 -147.5t-320.5 146.5t-111.5 373zM346 500 q0 -287 158 -287q51 0 84 37q72 78 71 436q-66 33 -167 33q-146 -4 -146 -219z" />
<glyph unicode="&#xf1;" horiz-adv-x="1118" d="M109 0v1051h241l25 -117q59 55 150.5 95t183.5 40q178 0 242.5 -91t64.5 -259v-719h-287v668q0 80 -25.5 124t-124 44t-178.5 -76v-760h-292zM193 1337q37 61 97 107.5t116.5 46.5t148.5 -44t138 -44t106 72l100 -111q-37 -61 -99.5 -107.5t-118.5 -46.5t-146.5 44 t-136.5 44t-105 -71z" />
<glyph unicode="&#xf2;" d="M68 520.5q0 284.5 125.5 416.5t330.5 132q455 0 455 -547q0 -284 -127 -416.5t-334 -132.5t-328.5 131.5t-121.5 416zM268 1358l101 227l387 -223l-70 -160zM344 520q0 -328 178 -327q84 0 131 72.5t47 260t-45 255t-132 67.5t-133 -67.5t-46 -260.5z" />
<glyph unicode="&#xf3;" d="M68 520.5q0 284.5 125.5 416.5t330.5 132q455 0 455 -547q0 -284 -127 -416.5t-334 -132.5t-328.5 131.5t-121.5 416zM344 520q0 -328 178 -327q84 0 131 72.5t47 260t-45 255t-132 67.5t-133 -67.5t-46 -260.5zM348 1362l387 223l101 -227l-418 -156z" />
<glyph unicode="&#xf4;" d="M68 520.5q0 284.5 125.5 416.5t330.5 132q455 0 455 -547q0 -285 -127 -417t-334 -132t-328.5 131.5t-121.5 416zM215 1317l227 244h152l227 -244l-131 -107l-172 174l-172 -174zM344 520q0 -328 178 -327q84 0 131 72.5t47 260t-45 255t-132 67.5t-133 -67.5t-46 -260.5 z" />
<glyph unicode="&#xf5;" d="M68 520.5q0 284.5 125.5 416.5t330.5 132q455 0 455 -547q0 -284 -127 -416.5t-334 -132.5t-328.5 131.5t-121.5 416zM166 1337q37 61 97.5 107.5t115.5 46.5t147 -44t139.5 -44t106.5 72l100 -111q-37 -61 -99 -107.5t-118.5 -46.5t-146.5 44t-136 44t-106 -71zM344 520 q0 -328 178 -327q84 0 131 72.5t47 260t-45 255t-132 67.5t-133 -67.5t-46 -260.5z" />
<glyph unicode="&#xf6;" d="M68 520.5q0 284.5 125.5 416.5t330.5 132q455 0 455 -547q0 -284 -127 -416.5t-334 -132.5t-328.5 131.5t-121.5 416zM188 1364q0 59 40 100t100.5 41t101.5 -41t41 -100t-41 -101t-101.5 -42t-100.5 42t-40 101zM344 520q0 -328 178 -327q84 0 131 72.5t47 260t-45 255 t-132 67.5t-133 -67.5t-46 -260.5zM565 1364q0 59 41 100t100.5 41t100.5 -41t41 -100t-41 -101t-100.5 -42t-100.5 42t-41 101z" />
<glyph unicode="&#xf7;" horiz-adv-x="1099" d="M82 457v223h936v-223h-936zM416 240.5q0 54.5 40 91.5t95 37t93 -37t38 -91.5t-38 -95.5t-93 -41t-95 41t-40 95.5zM416 898q0 54 40 91t95 37t93 -37t38 -91t-38 -95t-93 -41t-95 41t-40 95z" />
<glyph unicode="&#xf8;" d="M68 519q0 286 125.5 418t330.5 132q74 0 146 -16l82 170l153 -74l-84 -174q158 -135 158 -436t-127 -433.5t-340 -132.5q-82 0 -166 27l-78 -160l-157 72l88 180q-131 141 -131 427zM344 520q0 -51 8 -117l215 441q-29 4 -43 4q-88 0 -134 -67.5t-46 -260.5zM449 209 q30 -16 73 -16q84 0 131 72.5t47 220t-14 210.5z" />
<glyph unicode="&#xf9;" horiz-adv-x="1112" d="M102 324v727h287v-676q0 -82 24.5 -125t122 -43t181.5 63v781h287v-1078h-236l-25 123q-158 -123 -335 -123t-241.5 91.5t-64.5 259.5zM217 1358l100 227l388 -223l-70 -160z" />
<glyph unicode="&#xfa;" horiz-adv-x="1112" d="M102 324v727h287v-676q0 -82 24.5 -125t122 -43t181.5 63v781h287v-1078h-236l-25 123q-158 -123 -335 -123t-241.5 91.5t-64.5 259.5zM387 1362l387 223l100 -227l-417 -156z" />
<glyph unicode="&#xfb;" horiz-adv-x="1112" d="M102 324v727h287v-676q0 -82 24.5 -125t122 -43t181.5 63v781h287v-1078h-236l-25 123q-158 -123 -335 -123t-241.5 91.5t-64.5 259.5zM250 1317l227 244h152l227 -244l-131 -107l-172 174l-172 -174z" />
<glyph unicode="&#xfc;" horiz-adv-x="1112" d="M102 324v727h287v-676q0 -82 24.5 -125t122 -43t181.5 63v781h287v-1078h-236l-25 123q-158 -123 -335 -123t-241.5 91.5t-64.5 259.5zM229 1364q0 59 40 100t100.5 41t101.5 -41t41 -100t-41 -101t-101.5 -42t-100.5 42t-40 101zM606 1364q0 59 41 100t100.5 41 t100.5 -41t41 -100t-41 -101t-100.5 -42t-100.5 42t-41 101z" />
<glyph unicode="&#xfd;" horiz-adv-x="1028" d="M-41 -399l43 198q0 -2 61.5 -11t79.5 -9q115 0 163 42t87 206l-383 997l273 35l235 -725l209 717h277l-332 -965q-106 -307 -201.5 -414.5t-296.5 -107.5q-92 0 -215 37zM360 1362l388 223l100 -227l-418 -156z" />
<glyph unicode="&#xfe;" horiz-adv-x="1110" d="M109 -434v1870h286v-453q43 35 116 60.5t146 25.5q168 0 276.5 -128t108.5 -366q0 -602 -491 -602q-80 0 -156 33v-440h-286zM395 215q56 -10 107 -10q141 0 196.5 86t55.5 250t-44 229.5t-134.5 65.5t-180.5 -56v-565z" />
<glyph unicode="&#xff;" horiz-adv-x="1028" d="M-41 -399l43 198q0 -2 61.5 -11t79.5 -9q115 0 163 42t87 206l-383 997l273 35l235 -725l209 717h277l-332 -965q-106 -307 -201.5 -414.5t-296.5 -107.5q-92 0 -215 37zM178 1364q0 59 40 100t100.5 41t101.5 -41t41 -100t-41 -101t-101.5 -42t-100.5 42t-40 101z M555 1364q0 59 41 100t100.5 41t100.5 -41t41 -100t-41 -101t-100.5 -42t-100.5 42t-41 101z" />
<glyph unicode="&#x131;" horiz-adv-x="503" d="M109 0v1049l286 24v-1073h-286z" />
<glyph unicode="&#x152;" horiz-adv-x="1869" d="M80 684q0 289 119 487q131 222 450 222q166 0 295 -86v63h821v-237h-596v-310h564v-229h-564v-356h615v-238h-840v63q-127 -88 -315 -88q-350 0 -477 304q-72 172 -72 405zM365 679q0 -210 59 -332t208.5 -122t209 122t59.5 300t-20.5 275.5t-82 164t-152.5 66.5 t-145.5 -36t-82.5 -103q-53 -125 -53 -335z" />
<glyph unicode="&#x153;" horiz-adv-x="1644" d="M68 520.5q0 284.5 125.5 416.5t342 132t322.5 -166q115 166 340 166q182 0 281.5 -97.5t99.5 -271.5q0 -102 -27 -204h-565q3 -308 273 -308q133 0 256 48l49 -195q-156 -68 -351 -68q-248 0 -362 164q-113 -164 -327 -164t-335.5 131.5t-121.5 416zM344 520 q0 -328 178 -327q90 0 138.5 71.5t48.5 260t-46.5 256t-136.5 67.5t-136 -67.5t-46 -260.5zM989 651h361v13q0 203 -144 202q-152 0 -202 -153q-8 -29 -15 -62z" />
<glyph unicode="&#x178;" horiz-adv-x="1122" d="M-16 1368h299l278 -584l279 584h299l-430 -827v-541h-295v541zM221 1607.5q0 59.5 40 100.5t100.5 41t101.5 -41t41 -100.5t-41 -101.5t-101.5 -42t-100.5 42t-40 101.5zM598 1607.5q0 59.5 41 100.5t100.5 41t100.5 -41t41 -100.5t-41 -101.5t-100.5 -42t-100.5 42 t-41 101.5z" />
<glyph unicode="&#x192;" horiz-adv-x="1277" d="M35 -449l59 205q88 -20 206 -20t157 46t39 150v920l-193 12v168l195 15v59q0 211 114.5 307t356.5 96q123 0 274 -49l-59 -205q-86 20 -205 20.5t-158 -45.5t-39 -151v-30h314l-19 -197h-295v-946q0 -211 -115.5 -307.5t-357.5 -96.5q-123 0 -274 49z" />
<glyph unicode="&#x2c6;" horiz-adv-x="778" d="M86 1317l227 244h152l227 -244l-131 -107l-172 174l-172 -174z" />
<glyph unicode="&#x2c7;" horiz-adv-x="835" d="M125 1413l131 107l172 -174l172 174l131 -107l-227 -244h-152z" />
<glyph unicode="&#x2d8;" horiz-adv-x="614" d="M86 1348h139q0 -35 19.5 -66t63.5 -31t63.5 30t19.5 67h137q0 -92 -57 -159t-165.5 -67t-164 65.5t-55.5 160.5z" />
<glyph unicode="&#x2d9;" horiz-adv-x="450" d="M57 1224.5q0 69.5 49.5 119t119 49.5t118.5 -49.5t49 -118t-49 -119.5t-118.5 -51t-119 50t-49.5 119.5z" />
<glyph unicode="&#x2da;" horiz-adv-x="608" d="M86 1434q0 88 54.5 148t156.5 60t156.5 -59t54.5 -147t-55.5 -150.5t-157.5 -62.5t-155.5 61.5t-53.5 149.5zM225 1432q0 -33 17.5 -56.5t54.5 -23.5q74 0 74 79.5t-73 79.5t-73 -79z" />
<glyph unicode="&#x2db;" horiz-adv-x="632" d="M92 -300q0 81 34 152.5t91 120.5h225q-114 -102 -114 -188q0 -59 75 -59q39 0 97 18l37 -190q-125 -51 -227.5 -51.5t-160 58t-57.5 139.5z" />
<glyph unicode="&#x2dc;" horiz-adv-x="970" d="M135 1337q37 61 97.5 107.5t117 46.5t148.5 -44t138 -44t105 72l101 -111q-37 -61 -99.5 -107.5t-119 -46.5t-146.5 44t-136 44t-105 -71z" />
<glyph unicode="&#x2dd;" horiz-adv-x="1093" d="M96 1130l266 357l183 -168l-322 -307zM549 1130l266 357l182 -168l-321 -307z" />
<glyph unicode="&#x2000;" horiz-adv-x="944" />
<glyph unicode="&#x2001;" horiz-adv-x="1888" />
<glyph unicode="&#x2002;" horiz-adv-x="944" />
<glyph unicode="&#x2003;" horiz-adv-x="1888" />
<glyph unicode="&#x2004;" horiz-adv-x="629" />
<glyph unicode="&#x2005;" horiz-adv-x="472" />
<glyph unicode="&#x2006;" horiz-adv-x="314" />
<glyph unicode="&#x2007;" horiz-adv-x="314" />
<glyph unicode="&#x2008;" horiz-adv-x="236" />
<glyph unicode="&#x2009;" horiz-adv-x="377" />
<glyph unicode="&#x200a;" horiz-adv-x="104" />
<glyph unicode="&#x2010;" horiz-adv-x="1042" d="M104 457v223h834v-223h-834z" />
<glyph unicode="&#x2011;" horiz-adv-x="1042" d="M104 457v223h834v-223h-834z" />
<glyph unicode="&#x2012;" horiz-adv-x="1042" d="M104 457v223h834v-223h-834z" />
<glyph unicode="&#x2013;" horiz-adv-x="1144" d="M104 457v223h936v-223h-936z" />
<glyph unicode="&#x2014;" horiz-adv-x="1452" d="M104 457v223h1244v-223h-1244z" />
<glyph unicode="&#x2018;" horiz-adv-x="452" d="M84 1092q0 215 182 383h211q-168 -195 -168 -353q0 -68 35 -147h-235q-25 54 -25 117z" />
<glyph unicode="&#x2019;" horiz-adv-x="520" d="M66 932q168 195 167 352q0 68 -34 148h235q25 -54 25 -117q0 -215 -183 -383h-210z" />
<glyph unicode="&#x201a;" horiz-adv-x="446" d="M-41 -262q168 195 168 352q0 68 -35 148h236q24 -54 24 -117q0 -215 -182 -383h-211z" />
<glyph unicode="&#x201c;" horiz-adv-x="841" d="M84 1092q0 215 182 383h211q-168 -195 -168 -353q0 -68 35 -147h-235q-25 54 -25 117zM473 1092q0 215 182 383h211q-168 -195 -168 -353q0 -68 35 -147h-235q-25 54 -25 117z" />
<glyph unicode="&#x201d;" horiz-adv-x="909" d="M66 932q168 195 167 352q0 68 -34 148h235q25 -54 25 -117q0 -215 -183 -383h-210zM455 932q168 195 168 352q0 68 -35 148h235q25 -54 25 -117q0 -215 -182 -383h-211z" />
<glyph unicode="&#x201e;" horiz-adv-x="835" d="M-41 -262q168 195 168 352q0 68 -35 148h236q24 -54 24 -117q0 -215 -182 -383h-211zM348 -262q168 195 168 352q0 68 -35 148h236q24 -54 24 -117q0 -215 -182 -383h-211z" />
<glyph unicode="&#x2020;" horiz-adv-x="856" d="M49 803v180l311 -31l-55 418h225l-55 -418l332 31v-180l-332 31l51 -834h-217l51 834z" />
<glyph unicode="&#x2021;" horiz-adv-x="858" d="M88 307v160l293 -27l-41 258l41 242l-293 -27v162l293 -28l-47 333h192l-49 -333l293 28v-162l-293 27l43 -242l-43 -258l293 27v-160l-293 27l49 -334h-192l47 334z" />
<glyph unicode="&#x2022;" horiz-adv-x="731" d="M127 643q0 102 68.5 171t170 69t170 -69t68.5 -171t-68.5 -171t-170 -69t-170 69t-68.5 171z" />
<glyph unicode="&#x2026;" horiz-adv-x="1437" d="M80 155.5q0 69.5 49 119t118.5 49.5t119 -49.5t49.5 -118t-49.5 -119.5t-119 -51t-118.5 50t-49 119.5zM553 155.5q0 69.5 49 119t119 49.5t119 -49.5t49 -118t-49 -119.5t-119 -51t-119 50t-49 119.5zM1024 155.5q0 69.5 49 119t119 49.5t119 -49.5t49 -118t-49 -119.5 t-119 -51t-119 50t-49 119.5z" />
<glyph unicode="&#x202f;" horiz-adv-x="377" />
<glyph unicode="&#x2030;" horiz-adv-x="2371" d="M47 1038q0 238 107 326q88 74 220 74t212 -84t80 -314q0 -236 -105 -323q-88 -72 -222 -72t-213 82t-79 311zM240 1038.5q0 -151.5 28.5 -205t87 -53.5t88 53.5t29.5 204t-29.5 206.5t-87 56t-87 -55t-29.5 -206.5zM414 -137l583 1743l215 -64l-579 -1739zM1006 369 q0 238 106 325q88 74 220 74t212 -84t80 -313q0 -236 -104 -322q-88 -74 -222.5 -74t-213 82t-78.5 312zM1198 368.5q0 -151.5 28.5 -204.5t87 -53t88.5 53t30 203.5t-30 207t-87.5 56.5t-87 -55.5t-29.5 -207zM1706 369q0 238 106 325q88 74 220.5 74t212 -84t79.5 -313 q0 -236 -104 -322q-88 -74 -222 -74t-213 82t-79 312zM1898 368.5q0 -151.5 29 -204.5t87.5 -53t88 53t29.5 203.5t-29.5 207t-87 56.5t-87.5 -55.5t-30 -207z" />
<glyph unicode="&#x2039;" horiz-adv-x="675" d="M72 510v121l360 379l168 -144l-287 -297l287 -290l-168 -150z" />
<glyph unicode="&#x203a;" horiz-adv-x="675" d="M76 279l286 290l-286 297l168 144l360 -379v-121l-360 -381z" />
<glyph unicode="&#x2044;" horiz-adv-x="792" d="M-4 -113l584 1743l215 -63l-580 -1739z" />
<glyph unicode="&#x205f;" horiz-adv-x="472" />
<glyph unicode="&#x20ac;" horiz-adv-x="1189" d="M68 465v151h139q-2 23 -2 76t2 80h-139v152h161q37 168 133.5 276.5t209 149.5t257 41t299.5 -45l-47 -211q-117 23 -217 22q-260 0 -329 -233h299v-152h-326q-2 -25 -2 -78t2 -78h326v-151h-302q74 -248 345 -248q121 0 219 16l18 -223q-162 -37 -315 -37 q-217 0 -372 116t-204 376h-155z" />
<glyph unicode="&#x2122;" horiz-adv-x="1628" d="M90 1237v131h569v-131h-204v-639h-164v639h-201zM739 598l43 770h181l167 -496l166 496h181l45 -770h-154l-20 551l-158 -455h-119l-160 455l-18 -551h-154z" />
<glyph unicode="&#x25fc;" horiz-adv-x="1054" d="M0 0v1055h1055v-1055h-1055z" />
<glyph unicode="&#xfb01;" horiz-adv-x="1261" d="M31 864v168l194 15v59q0 213 117 308t369 95q154 0 305 -49l-60 -205q-88 20 -226 20.5t-179 -45.5t-41 -151v-30h358l287 24v-1073h-287v852h-358v-1233l-287 29v1204z" />
<glyph unicode="&#xfb02;" horiz-adv-x="1488" d="M31 864v168l194 15v59q0 242 154 336q137 84 366.5 84t509.5 -92v-1121q0 -59 17.5 -83.5t71 -24.5t110.5 14l43 -201q-104 -45 -202.5 -45t-162 22.5t-95 51.5t-48 84t-19.5 93t-3 106v927q-80 31 -224.5 31t-188.5 -47t-44 -162v-30h293l-19 -197h-274v-1233l-287 29 v1204z" />
</font>
</defs>
</svg>
